<svg width="57" height="46" viewBox="0 0 57 46" fill="none" xmlns="http://www.w3.org/2000/svg">
<g clip-path="url(#clip0_1_241)">
<path d="M51.7677 9.83368C51.4953 8.65693 50.9406 7.57874 50.1594 6.70802C49.3783 5.8373 48.3985 5.20488 47.319 4.87465C43.3748 3.83325 27.5981 3.83325 27.5981 3.83325C27.5981 3.83325 11.8213 3.83325 7.8771 4.97383C6.7976 5.30406 5.81781 5.93648 5.0367 6.8072C4.25559 7.67792 3.70081 8.75611 3.42841 9.93286C2.70657 14.261 2.35347 18.6516 2.37357 23.0495C2.34784 27.4805 2.70096 31.9046 3.42841 36.2653C3.72872 37.4055 4.29592 38.4427 5.07522 39.2767C5.85451 40.1106 6.81955 40.7131 7.8771 41.026C11.8213 42.1666 27.5981 42.1666 27.5981 42.1666C27.5981 42.1666 43.3748 42.1666 47.319 41.026C48.3985 40.6958 49.3783 40.0634 50.1594 39.1926C50.9406 38.3219 51.4953 37.2437 51.7677 36.067C52.484 31.7714 52.8371 27.4143 52.8226 23.0495C52.8483 18.6185 52.4952 14.1944 51.7677 9.83368V9.83368Z" stroke="black" stroke-width="3.28571" stroke-linecap="round" stroke-linejoin="round"/>
<path d="M22.1935 30.6666L36.6083 22.9999L22.1935 15.3333V30.6666Z" stroke="black" stroke-width="3.28571" stroke-linecap="round" stroke-linejoin="round"/>
</g>
<defs>
<clipPath id="clip0_1_241">
<rect width="55.8571" height="46" fill="white" transform="translate(0.571426)"/>
</clipPath>
</defs>
</svg>
