<svg width="47" height="46" viewBox="0 0 47 46" fill="none" xmlns="http://www.w3.org/2000/svg">
<g clip-path="url(#clip0_1_240)">
<path d="M44.369 5.74999C42.5336 7.04465 40.5014 8.03486 38.3507 8.68249C37.1964 7.35522 35.6623 6.41448 33.9559 5.98751C32.2495 5.56054 30.4531 5.66794 28.8097 6.29519C27.1663 6.92243 25.7552 8.03926 24.7673 9.49461C23.7793 10.95 23.2621 12.6736 23.2857 14.4325V16.3492C19.9174 16.4365 16.5798 15.6895 13.5701 14.1746C10.5605 12.6597 7.97215 10.424 6.03571 7.66665C6.03571 7.66665 -1.63096 24.9167 15.619 32.5833C11.6717 35.2628 6.96943 36.6063 2.20238 36.4167C19.4524 46 40.5357 36.4167 40.5357 14.375C40.5339 13.8411 40.4826 13.3085 40.3824 12.7842C42.3385 10.855 43.719 8.41935 44.369 5.74999V5.74999Z" stroke="black" stroke-width="3.28571" stroke-linecap="round" stroke-linejoin="round"/>
</g>
<defs>
<clipPath id="clip0_1_240">
<rect width="46" height="46" fill="white" transform="translate(0.285706)"/>
</clipPath>
</defs>
</svg>
