<svg width="63" height="46" viewBox="0 0 63 46" fill="none" xmlns="http://www.w3.org/2000/svg">
<path d="M16.985 13.1406C14.2546 13.1406 11.9699 13.8498 10.1931 14.8803V3.28577V1.64291H8.55024H3.71429H2.07144V3.28577V42.7143V44.3572H3.71429H8.55024H10.1931V42.7143V26.6067C10.1931 24.2924 10.993 22.8737 12.0114 22.0076C13.0747 21.1033 14.5505 20.6567 16.0853 20.6567C17.6956 20.6567 18.891 21.1096 19.6826 21.8912C20.4674 22.6662 21.0778 23.9843 21.0778 26.1728V42.7143V44.3572H22.7207H27.5566H29.1995V42.7143V25.522C29.1995 21.3597 27.7869 18.2004 25.4307 16.0995C23.1072 14.0279 20.0413 13.1406 16.985 13.1406ZM48.9998 13.1406C46.2694 13.1406 43.9848 13.8498 42.2079 14.8803V3.28577V1.64291H40.5651H35.7291H34.0863V3.28577V42.7143V44.3572H35.7291H40.5651H42.2079V42.7143V26.6067C42.2079 24.2924 43.0079 22.8737 44.0263 22.0076C45.0895 21.1033 46.5653 20.6567 48.1001 20.6567C49.7105 20.6567 50.9059 21.1096 51.6974 21.8912C52.4823 22.6662 53.0926 23.9843 53.0926 26.1728V42.7143V44.3572H54.7355H59.5714H61.2143V42.7143V25.522C61.2143 21.3597 59.8017 18.2004 57.4455 16.0995C55.122 14.0279 52.0562 13.1406 48.9998 13.1406Z" stroke="black" stroke-width="3.28571"/>
</svg>
