<svg width="57" height="46" viewBox="0 0 57 46" fill="none" xmlns="http://www.w3.org/2000/svg">
<g clip-path="url(#clip0_8_381)">
<path d="M51.767 9.83368C51.4946 8.65693 50.9399 7.57874 50.1588 6.70802C49.3777 5.8373 48.3979 5.20488 47.3184 4.87465C43.3742 3.83325 27.5974 3.83325 27.5974 3.83325C27.5974 3.83325 11.8206 3.83325 7.87642 4.97383C6.79692 5.30406 5.81713 5.93648 5.03602 6.8072C4.25491 7.67792 3.70013 8.75611 3.42774 9.93286C2.70589 14.261 2.3528 18.6516 2.37289 23.0495C2.34716 27.4805 2.70028 31.9046 3.42774 36.2653C3.72804 37.4055 4.29524 38.4427 5.07454 39.2767C5.85383 40.1106 6.81887 40.7131 7.87642 41.026C11.8206 42.1666 27.5974 42.1666 27.5974 42.1666C27.5974 42.1666 43.3742 42.1666 47.3184 41.026C48.3979 40.6958 49.3777 40.0634 50.1588 39.1926C50.9399 38.3219 51.4946 37.2437 51.767 36.067C52.4833 31.7714 52.8364 27.4143 52.8219 23.0495C52.8476 18.6185 52.4945 14.1944 51.767 9.83368V9.83368Z" stroke="black" stroke-width="3.28571" stroke-linecap="round" stroke-linejoin="round"/>
<path d="M22.1948 30.6666L36.6096 22.9999L22.1948 15.3333V30.6666Z" stroke="black" stroke-width="3.28571" stroke-linecap="round" stroke-linejoin="round"/>
</g>
<defs>
<clipPath id="clip0_8_381">
<rect width="55.8571" height="46" fill="white" transform="translate(0.571289)"/>
</clipPath>
</defs>
</svg>
