<svg width="63" height="46" viewBox="0 0 63 46" fill="none" xmlns="http://www.w3.org/2000/svg">
<path d="M16.9846 13.1405C14.2541 13.1405 11.9695 13.8497 10.1927 14.8802V3.28564V1.64279H8.54981H3.71387H2.07101V3.28564V42.7142V44.3571H3.71387H8.54981H10.1927V42.7142V26.6065C10.1927 24.2923 10.9926 22.8736 12.011 22.0075C13.0743 21.1032 14.55 20.6565 16.0849 20.6565C17.6952 20.6565 18.8906 21.1095 19.6822 21.8911C20.467 22.6661 21.0774 23.9841 21.0774 26.1727V42.7142V44.3571H22.7202H27.5562H29.199V42.7142V25.5218C29.199 21.3595 27.7865 18.2003 25.4302 16.0994C23.1067 14.0277 20.0409 13.1405 16.9846 13.1405ZM48.9994 13.1405C46.269 13.1405 43.9843 13.8497 42.2075 14.8802V3.28564V1.64279H40.5646H35.7287H34.0858V3.28564V42.7142V44.3571H35.7287H40.5646H42.2075V42.7142V26.6065C42.2075 24.2923 43.0074 22.8736 44.0258 22.0075C45.0891 21.1032 46.5648 20.6565 48.0997 20.6565C49.71 20.6565 50.9054 21.1095 51.697 21.8911C52.4818 22.6661 53.0922 23.9841 53.0922 26.1727V42.7142V44.3571H54.7351H59.571H61.2139V42.7142V25.5218C61.2139 21.3595 59.8013 18.2003 57.4451 16.0994C55.1216 14.0277 52.0557 13.1405 48.9994 13.1405Z" stroke="black" stroke-width="3.28571"/>
</svg>
