<svg width="47" height="46" viewBox="0 0 47 46" fill="none" xmlns="http://www.w3.org/2000/svg">
<g clip-path="url(#clip0_3_58)">
<path d="M44.3697 5.74999C42.5342 7.04465 40.502 8.03486 38.3513 8.68249C37.197 7.35522 35.6629 6.41448 33.9565 5.98751C32.2501 5.56054 30.4537 5.66794 28.8103 6.29519C27.1669 6.92243 25.7559 8.03926 24.7679 9.49461C23.7799 10.95 23.2628 12.6736 23.2863 14.4325V16.3492C19.9181 16.4365 16.5804 15.6895 13.5708 14.1746C10.5611 12.6597 7.97278 10.424 6.03634 7.66665C6.03634 7.66665 -1.63033 24.9167 15.6197 32.5833C11.6723 35.2628 6.97005 36.6063 2.203 36.4167C19.453 46 40.5363 36.4167 40.5363 14.375C40.5346 13.8411 40.4832 13.3085 40.383 12.7842C42.3392 10.855 43.7196 8.41935 44.3697 5.74999V5.74999Z" stroke="black" stroke-width="3.28571" stroke-linecap="round" stroke-linejoin="round"/>
</g>
<defs>
<clipPath id="clip0_3_58">
<rect width="46" height="46" fill="white" transform="translate(0.285767)"/>
</clipPath>
</defs>
</svg>
