<svg width="57" height="46" viewBox="0 0 57 46" fill="none" xmlns="http://www.w3.org/2000/svg">
<g clip-path="url(#clip0_3_59)">
<path d="M51.7669 9.83381C51.4945 8.65705 50.9398 7.57886 50.1586 6.70814C49.3775 5.83742 48.3977 5.205 47.3182 4.87477C43.374 3.83337 27.5973 3.83337 27.5973 3.83337C27.5973 3.83337 11.8205 3.83337 7.8763 4.97395C6.7968 5.30419 5.81701 5.9366 5.0359 6.80732C4.25478 7.67804 3.70001 8.75623 3.42761 9.93299C2.70577 14.2611 2.35267 18.6517 2.37277 23.0496C2.34704 27.4806 2.70016 31.9047 3.42761 36.2655C3.72792 37.4057 4.29512 38.4428 5.07442 39.2768C5.85371 40.1107 6.81875 40.7132 7.8763 41.0261C11.8205 42.1667 27.5973 42.1667 27.5973 42.1667C27.5973 42.1667 43.374 42.1667 47.3182 41.0261C48.3977 40.6959 49.3775 40.0635 50.1586 39.1928C50.9398 38.322 51.4945 37.2438 51.7669 36.0671C52.4832 31.7716 52.8363 27.4144 52.8218 23.0496C52.8475 18.6186 52.4944 14.1945 51.7669 9.83381V9.83381Z" stroke="black" stroke-width="3.28571" stroke-linecap="round" stroke-linejoin="round"/>
<path d="M22.1932 30.6667L36.608 23L22.1932 15.3334V30.6667Z" stroke="black" stroke-width="3.28571" stroke-linecap="round" stroke-linejoin="round"/>
</g>
<defs>
<clipPath id="clip0_3_59">
<rect width="55.8571" height="46" fill="white" transform="translate(0.571411)"/>
</clipPath>
</defs>
</svg>
