<svg width="63" height="46" viewBox="0 0 63 46" fill="none" xmlns="http://www.w3.org/2000/svg">
<path d="M16.9846 13.1406C14.2541 13.1406 11.9695 13.8498 10.1927 14.8803V3.28577V1.64291H8.54981H3.71387H2.07101V3.28577V42.7143V44.3572H3.71387H8.54981H10.1927V42.7143V26.6067C10.1927 24.2924 10.9926 22.8737 12.011 22.0076C13.0743 21.1033 14.55 20.6567 16.0849 20.6567C17.6952 20.6567 18.8906 21.1096 19.6822 21.8912C20.467 22.6662 21.0774 23.9843 21.0774 26.1728V42.7143V44.3572H22.7202H27.5562H29.199V42.7143V25.522C29.199 21.3597 27.7865 18.2004 25.4302 16.0995C23.1067 14.0279 20.0409 13.1406 16.9846 13.1406ZM48.9994 13.1406C46.269 13.1406 43.9843 13.8498 42.2075 14.8803V3.28577V1.64291H40.5646H35.7287H34.0858V3.28577V42.7143V44.3572H35.7287H40.5646H42.2075V42.7143V26.6067C42.2075 24.2924 43.0074 22.8737 44.0258 22.0076C45.0891 21.1033 46.5648 20.6567 48.0997 20.6567C49.71 20.6567 50.9054 21.1096 51.697 21.8912C52.4818 22.6662 53.0922 23.9843 53.0922 26.1728V42.7143V44.3572H54.7351H59.571H61.2139V42.7143V25.522C61.2139 21.3597 59.8013 18.2004 57.4451 16.0995C55.1216 14.0279 52.0557 13.1406 48.9994 13.1406Z" stroke="black" stroke-width="3.28571"/>
</svg>
