<svg width="47" height="46" viewBox="0 0 47 46" fill="none" xmlns="http://www.w3.org/2000/svg">
<g clip-path="url(#clip0_10_362)">
<path d="M44.3683 5.74999C42.5329 7.04465 40.5007 8.03486 38.35 8.68249C37.1957 7.35522 35.6616 6.41448 33.9551 5.98751C32.2487 5.56054 30.4524 5.66794 28.809 6.29519C27.1656 6.92243 25.7545 8.03926 24.7665 9.49461C23.7786 10.95 23.2614 12.6736 23.285 14.4325V16.3492C19.9167 16.4365 16.5791 15.6895 13.5694 14.1746C10.5598 12.6597 7.97144 10.424 6.03499 7.66665C6.03499 7.66665 -1.63167 24.9167 15.6183 32.5833C11.671 35.2628 6.96871 36.6063 2.20166 36.4167C19.4517 46 40.535 36.4167 40.535 14.375C40.5332 13.8411 40.4819 13.3085 40.3817 12.7842C42.3378 10.855 43.7183 8.41935 44.3683 5.74999V5.74999Z" stroke="black" stroke-width="3.28571" stroke-linecap="round" stroke-linejoin="round"/>
</g>
<defs>
<clipPath id="clip0_10_362">
<rect width="46" height="46" fill="white" transform="translate(0.286133)"/>
</clipPath>
</defs>
</svg>
