<svg width="57" height="46" viewBox="0 0 57 46" fill="none" xmlns="http://www.w3.org/2000/svg">
<g clip-path="url(#clip0_10_363)">
<path d="M51.767 9.83381C51.4946 8.65705 50.9399 7.57886 50.1588 6.70814C49.3777 5.83742 48.3979 5.205 47.3184 4.87477C43.3742 3.83337 27.5974 3.83337 27.5974 3.83337C27.5974 3.83337 11.8206 3.83337 7.87642 4.97395C6.79692 5.30419 5.81713 5.9366 5.03602 6.80732C4.25491 7.67804 3.70013 8.75623 3.42774 9.93299C2.70589 14.2611 2.3528 18.6517 2.37289 23.0496C2.34716 27.4806 2.70028 31.9047 3.42774 36.2655C3.72804 37.4057 4.29524 38.4428 5.07454 39.2768C5.85383 40.1107 6.81887 40.7132 7.87642 41.0261C11.8206 42.1667 27.5974 42.1667 27.5974 42.1667C27.5974 42.1667 43.3742 42.1667 47.3184 41.0261C48.3979 40.6959 49.3777 40.0635 50.1588 39.1928C50.9399 38.322 51.4946 37.2438 51.767 36.0671C52.4833 31.7716 52.8364 27.4144 52.8219 23.0496C52.8476 18.6186 52.4945 14.1945 51.767 9.83381V9.83381Z" stroke="black" stroke-width="3.28571" stroke-linecap="round" stroke-linejoin="round"/>
<path d="M22.1951 30.6667L36.6098 23L22.1951 15.3334V30.6667Z" stroke="black" stroke-width="3.28571" stroke-linecap="round" stroke-linejoin="round"/>
</g>
<defs>
<clipPath id="clip0_10_363">
<rect width="55.8571" height="46" fill="white" transform="translate(0.571533)"/>
</clipPath>
</defs>
</svg>
