<svg width="16" height="15" viewBox="0 0 16 15" fill="none" xmlns="http://www.w3.org/2000/svg">
<path d="M12.9822 7.12614H14.1815C14.1815 4.04972 11.8589 1.72952 8.77832 1.72952V2.9289C11.2143 2.9289 12.9822 4.69379 12.9822 7.12614Z" fill="white"/>
<path d="M8.78419 5.32766C10.0453 5.32766 10.5833 5.86559 10.5833 7.12674H11.7826C11.7826 5.19273 10.7182 4.12828 8.78419 4.12828V5.32766ZM10.8363 8.59178C10.7211 8.48705 10.5697 8.43119 10.414 8.436C10.2584 8.44081 10.1107 8.50592 10.0022 8.61757L8.5671 10.0934C8.22168 10.0274 7.52724 9.81095 6.8124 9.09792C6.09757 8.38249 5.88108 7.68625 5.81692 7.34323L7.29156 5.90757C7.40335 5.7991 7.46855 5.65139 7.47336 5.4957C7.47817 5.34001 7.42222 5.18856 7.31734 5.0734L5.10149 2.63685C4.99657 2.52133 4.85074 2.45125 4.69499 2.44151C4.53923 2.43177 4.38581 2.48313 4.26732 2.58468L2.96599 3.7007C2.86231 3.80476 2.80042 3.94325 2.79208 4.0899C2.78308 4.23983 2.61157 7.79119 5.36535 10.5462C7.76771 12.9479 10.777 13.1236 11.6057 13.1236C11.7269 13.1236 11.8012 13.12 11.821 13.1188C11.9677 13.1106 12.1061 13.0485 12.2096 12.9443L13.325 11.6424C13.4267 11.524 13.4781 11.3706 13.4685 11.2149C13.4589 11.0591 13.3889 10.9132 13.2735 10.8082L10.8363 8.59178Z" fill="white"/>
</svg>
