<svg width="16" height="15" viewBox="0 0 16 15" fill="none" xmlns="http://www.w3.org/2000/svg">
<path d="M8.18476 1.18393C6.87309 1.18548 5.61558 1.70722 4.68809 2.63471C3.7606 3.5622 3.23886 4.81971 3.23731 6.13138C3.23574 7.20328 3.58587 8.24609 4.234 9.09985C4.234 9.09985 4.36893 9.27751 4.39097 9.30314L8.18476 13.7774L11.9804 9.3009C12.0001 9.27706 12.1355 9.09985 12.1355 9.09985L12.136 9.0985C12.7838 8.24512 13.1337 7.20279 13.1322 6.13138C13.1307 4.81971 12.6089 3.5622 11.6814 2.63471C10.7539 1.70722 9.49643 1.18548 8.18476 1.18393ZM8.18476 7.93045C7.82894 7.93045 7.4811 7.82494 7.18525 7.62725C6.88939 7.42957 6.6588 7.14859 6.52263 6.81985C6.38647 6.49112 6.35084 6.12938 6.42026 5.7804C6.48967 5.43141 6.66102 5.11085 6.91262 4.85924C7.16423 4.60764 7.48479 4.43629 7.83378 4.36687C8.18276 4.29746 8.5445 4.33309 8.87323 4.46925C9.20197 4.60542 9.48295 4.83601 9.68063 5.13187C9.87832 5.42772 9.98383 5.77556 9.98383 6.13138C9.98324 6.60834 9.7935 7.0656 9.45624 7.40286C9.11898 7.74012 8.66172 7.92986 8.18476 7.93045Z" fill="white"/>
</svg>
