<svg width="19" height="19" viewBox="0 0 19 19" fill="none" xmlns="http://www.w3.org/2000/svg">
<circle cx="9.38404" cy="9.41574" r="8.99536" fill="#1B1B1B"/>
<path d="M14.1242 6.67246C13.794 6.81298 13.4345 6.91411 13.0643 6.95349C13.4487 6.72828 13.7365 6.37247 13.8738 5.95283C13.5131 6.16445 13.118 6.31284 12.7059 6.39142C12.5337 6.20984 12.3254 6.06518 12.094 5.96646C11.8626 5.86774 11.6131 5.81708 11.361 5.81763C10.341 5.81763 9.52062 6.63307 9.52062 7.63374C9.52062 7.77425 9.53789 7.91477 9.56595 8.04997C8.0386 7.97119 6.6764 7.25157 5.77079 6.14977C5.60578 6.42774 5.5193 6.74423 5.52037 7.06634C5.52037 7.69654 5.84527 8.25223 6.34071 8.57905C6.04874 8.56771 5.7636 8.48856 5.50849 8.34804V8.3704C5.50849 9.2529 6.14102 9.98424 6.98403 10.1524C6.82575 10.193 6.66292 10.2137 6.49938 10.2142C6.37957 10.2142 6.26623 10.2025 6.15182 10.1865C6.38496 10.9061 7.06391 11.4288 7.87238 11.4459C7.23985 11.9345 6.44757 12.2219 5.58729 12.2219C5.43294 12.2219 5.29046 12.2166 5.14258 12.1995C5.9586 12.7158 6.92682 13.0139 7.96952 13.0139C11.3545 13.0139 13.2068 10.2482 13.2068 7.84771C13.2068 7.76893 13.2068 7.69016 13.2014 7.61138C13.5597 7.3527 13.8738 7.03227 14.1242 6.67246Z" fill="white"/>
</svg>
