<svg width="19" height="19" viewBox="0 0 19 19" fill="none" xmlns="http://www.w3.org/2000/svg">
<circle cx="9.14966" cy="9.41574" r="8.99536" fill="#1B1B1B"/>
<path d="M12.4141 6.91476C11.8317 6.68064 11.2172 6.51354 10.5858 6.41764C10.5801 6.4168 10.5742 6.41752 10.569 6.41973C10.5637 6.42193 10.5594 6.42549 10.5566 6.42993C10.4775 6.55286 10.3899 6.71365 10.3287 6.83953C9.64812 6.74906 8.95586 6.74906 8.27528 6.83953C8.20703 6.6993 8.12982 6.56255 8.04401 6.42993C8.04113 6.42554 8.0368 6.42202 8.03159 6.41982C8.02638 6.41763 8.02053 6.41687 8.01482 6.41764C7.3833 6.51303 6.76863 6.68021 6.18651 6.91476C6.18153 6.91642 6.17736 6.91955 6.17472 6.92361C5.01048 8.44742 4.69107 9.93386 4.84769 11.4016C4.84825 11.4085 4.8533 11.4154 4.85948 11.4198C5.53743 11.8597 6.29574 12.1956 7.10207 12.4131C7.10776 12.4146 7.11388 12.4146 7.11953 12.4129C7.12518 12.4112 7.13008 12.408 7.1335 12.4037C7.3064 12.1972 7.46021 11.9794 7.59268 11.7502C7.59545 11.7455 7.59639 11.7401 7.59538 11.7349C7.59437 11.7297 7.59145 11.7249 7.58707 11.7212C7.58417 11.7188 7.58073 11.717 7.57697 11.7158C7.33512 11.6344 7.10088 11.5366 6.8764 11.4233C6.87013 11.4201 6.86547 11.415 6.86338 11.409C6.86129 11.403 6.86193 11.3964 6.86518 11.3908C6.86709 11.3871 6.86998 11.3839 6.8736 11.3815C6.92075 11.3505 6.9679 11.318 7.01281 11.2856C7.01678 11.2828 7.02154 11.281 7.02658 11.2804C7.03162 11.2798 7.03676 11.2804 7.04144 11.2821C8.51161 11.8702 10.103 11.8702 11.5552 11.2821C11.5601 11.2803 11.5654 11.2796 11.5707 11.2802C11.5759 11.2809 11.5809 11.2827 11.585 11.2856C11.6299 11.318 11.6771 11.3505 11.7242 11.3815C11.728 11.3839 11.7311 11.3871 11.7331 11.3909C11.7352 11.3946 11.7361 11.3987 11.7359 11.4029C11.7357 11.407 11.7343 11.4111 11.7319 11.4146C11.7294 11.4182 11.726 11.4211 11.722 11.4233C11.498 11.5376 11.2635 11.6353 11.0208 11.7153C11.017 11.7166 11.0135 11.7185 11.0105 11.7211C11.0076 11.7236 11.0054 11.7267 11.004 11.7301C11.0027 11.7334 11.0022 11.7368 11.0025 11.7403C11.0028 11.7438 11.0039 11.7472 11.0057 11.7502C11.1404 11.9789 11.2948 12.1972 11.4643 12.4037C11.4677 12.408 11.4726 12.4112 11.4783 12.4129C11.4839 12.4146 11.49 12.4146 11.4957 12.4131C12.3034 12.1962 13.063 11.8603 13.7417 11.4198C13.7451 11.4177 13.7479 11.415 13.75 11.4119C13.752 11.4087 13.7532 11.4052 13.7535 11.4016C13.941 9.70472 13.4397 8.23058 12.4253 6.9241C12.4243 6.92194 12.4228 6.92 12.4209 6.91839C12.4189 6.91678 12.4166 6.91554 12.4141 6.91476ZM7.81217 10.5077C7.36927 10.5077 7.00495 10.1517 7.00495 9.71505C7.00495 9.27792 7.36253 8.92192 7.81217 8.92192C8.26518 8.92192 8.62613 9.28087 8.61939 9.71505C8.61939 10.1517 8.26181 10.5077 7.81217 10.5077ZM10.7963 10.5077C10.354 10.5077 9.98908 10.1517 9.98908 9.71505C9.98908 9.27792 10.3467 8.92192 10.7963 8.92192C11.2493 8.92192 11.6108 9.28087 11.6035 9.71505C11.6035 10.1517 11.2493 10.5077 10.7963 10.5077Z" fill="white"/>
</svg>
