<svg width="19" height="19" viewBox="0 0 19 19" fill="none" xmlns="http://www.w3.org/2000/svg">
<circle cx="9.76685" cy="9.41574" r="8.99536" fill="white"/>
<path fill-rule="evenodd" clip-rule="evenodd" d="M8.11595 4.64521C8.59483 4.62313 8.74752 4.61823 9.9674 4.61823C11.1873 4.61823 11.34 4.62354 11.8184 4.64521C12.2969 4.66688 12.6235 4.74334 12.9093 4.85415C13.2086 4.96741 13.48 5.14445 13.7046 5.37343C13.9332 5.5979 14.1096 5.8694 14.2223 6.16952C14.3333 6.45573 14.4092 6.78284 14.4313 7.26123C14.4533 7.74166 14.4582 7.89458 14.4582 9.11591C14.4582 10.3376 14.4529 10.4906 14.4313 10.9702C14.4096 11.4486 14.3333 11.7757 14.2223 12.0619C14.1096 12.362 13.9329 12.634 13.7046 12.8588C13.48 13.0878 13.2086 13.2644 12.9093 13.3773C12.6235 13.4885 12.2969 13.5645 11.8193 13.5866C11.34 13.6087 11.1873 13.6136 9.9674 13.6136C8.74752 13.6136 8.59483 13.6083 8.11595 13.5866C7.63829 13.5649 7.31168 13.4885 7.0259 13.3773C6.72621 13.2644 6.45467 13.0875 6.23021 12.8588C6.00174 12.6342 5.82493 12.3624 5.71213 12.0623C5.60149 11.7761 5.52555 11.449 5.50351 10.9706C5.48146 10.4902 5.47656 10.3372 5.47656 9.11591C5.47656 7.89417 5.48187 7.74125 5.50351 7.26204C5.52515 6.78284 5.60149 6.45573 5.71213 6.16952C5.8251 5.86943 6.00204 5.59762 6.23061 5.37302C6.45476 5.14425 6.72602 4.96718 7.02549 4.85415C7.31127 4.74334 7.63788 4.66729 8.11554 4.64521H8.11595ZM11.7821 5.45479C11.3085 5.43312 11.1665 5.42863 9.9674 5.42863C8.76834 5.42863 8.62627 5.43312 8.15269 5.45479C7.71463 5.47483 7.47703 5.54802 7.31862 5.60976C7.10919 5.69154 6.95935 5.78844 6.80218 5.94586C6.65318 6.09103 6.53851 6.26776 6.46659 6.46309C6.40494 6.62174 6.33186 6.85971 6.31186 7.29843C6.29022 7.77274 6.28573 7.91503 6.28573 9.11591C6.28573 10.3168 6.29022 10.4591 6.31186 10.9334C6.33186 11.3721 6.40494 11.6101 6.46659 11.7687C6.53844 11.9638 6.65316 12.1408 6.80218 12.286C6.94711 12.4352 7.12388 12.5501 7.31862 12.6221C7.47703 12.6838 7.71463 12.757 8.15269 12.777C8.62627 12.7987 8.76794 12.8032 9.9674 12.8032C11.1669 12.8032 11.3085 12.7987 11.7821 12.777C12.2202 12.757 12.4578 12.6838 12.6162 12.6221C12.8256 12.5403 12.9754 12.4434 13.1326 12.286C13.2816 12.1408 13.3964 11.9638 13.4682 11.7687C13.5299 11.6101 13.6029 11.3721 13.6229 10.9334C13.6446 10.4591 13.6491 10.3168 13.6491 9.11591C13.6491 7.91503 13.6446 7.77274 13.6229 7.29843C13.6029 6.85971 13.5299 6.62174 13.4682 6.46309C13.3866 6.25334 13.2898 6.10328 13.1326 5.94586C12.9877 5.79665 12.8112 5.68181 12.6162 5.60976C12.4578 5.54802 12.2202 5.47483 11.7821 5.45479ZM9.3938 10.5024C9.71414 10.636 10.0708 10.654 10.403 10.5534C10.7351 10.4528 11.0221 10.2399 11.2149 9.95094C11.4077 9.66199 11.4943 9.31498 11.46 8.96916C11.4257 8.62334 11.2726 8.30018 11.0268 8.05486C10.8702 7.89805 10.6807 7.77797 10.4721 7.70329C10.2636 7.6286 10.0411 7.60115 9.82063 7.62293C9.60019 7.6447 9.38733 7.71516 9.19734 7.82921C9.00736 7.94327 8.84499 8.0981 8.72193 8.28255C8.59886 8.467 8.51816 8.67648 8.48563 8.89591C8.45311 9.11535 8.46956 9.33927 8.53382 9.55158C8.59807 9.76388 8.70853 9.95927 8.85723 10.1237C9.00593 10.2881 9.18919 10.4174 9.3938 10.5024ZM8.33518 7.4812C8.54953 7.26653 8.80399 7.09624 9.08405 6.98006C9.3641 6.86388 9.66427 6.80409 9.9674 6.80409C10.2705 6.80409 10.5707 6.86388 10.8507 6.98006C11.1308 7.09624 11.3853 7.26653 11.5996 7.4812C11.814 7.69588 11.984 7.95073 12.1 8.23121C12.216 8.51169 12.2757 8.81231 12.2757 9.11591C12.2757 9.4195 12.216 9.72012 12.1 10.0006C11.984 10.2811 11.814 10.5359 11.5996 10.7506C11.1667 11.1842 10.5796 11.4277 9.9674 11.4277C9.3552 11.4277 8.76807 11.1842 8.33518 10.7506C7.90229 10.3171 7.6591 9.72904 7.6591 9.11591C7.6591 8.50277 7.90229 7.91475 8.33518 7.4812ZM12.7876 7.14838C12.8408 7.09819 12.8833 7.03785 12.9127 6.97091C12.9421 6.90397 12.9578 6.83181 12.9589 6.75868C12.9599 6.68556 12.9463 6.61297 12.9189 6.5452C12.8914 6.47743 12.8507 6.41587 12.7991 6.36416C12.7474 6.31245 12.686 6.27164 12.6183 6.24414C12.5506 6.21665 12.4781 6.20303 12.4051 6.2041C12.3321 6.20517 12.2601 6.22089 12.1932 6.25035C12.1264 6.27981 12.0661 6.32239 12.016 6.37559C11.9186 6.47905 11.8652 6.61647 11.8673 6.75868C11.8694 6.9009 11.9267 7.0367 12.0271 7.13727C12.1275 7.23784 12.2631 7.29526 12.4051 7.29733C12.5471 7.2994 12.6843 7.24597 12.7876 7.14838Z" fill="black"/>
</svg>
