<svg width="57" height="46" viewBox="0 0 57 46" fill="none" xmlns="http://www.w3.org/2000/svg">
<g clip-path="url(#clip0_1_457)">
<path d="M51.7675 9.83384C51.4951 8.65708 50.9404 7.57889 50.1593 6.70817C49.3781 5.83745 48.3984 5.20504 47.3189 4.8748C43.3747 3.8334 27.5979 3.8334 27.5979 3.8334C27.5979 3.8334 11.8211 3.8334 7.87691 4.97398C6.79741 5.30422 5.81762 5.93663 5.03651 6.80735C4.25539 7.67807 3.70062 8.75626 3.42822 9.93302C2.70638 14.2612 2.35328 18.6518 2.37338 23.0497C2.34765 27.4807 2.70077 31.9048 3.42822 36.2655C3.72853 37.4057 4.29573 38.4429 5.07503 39.2768C5.85432 40.1108 6.81936 40.7133 7.87691 41.0262C11.8211 42.1667 27.5979 42.1667 27.5979 42.1667C27.5979 42.1667 43.3747 42.1667 47.3189 41.0262C48.3984 40.6959 49.3781 40.0635 50.1593 39.1928C50.9404 38.3221 51.4951 37.2439 51.7675 36.0671C52.4838 31.7716 52.8369 27.4144 52.8224 23.0497C52.8481 18.6187 52.495 14.1946 51.7675 9.83384V9.83384Z" stroke="black" stroke-width="3.28571" stroke-linecap="round" stroke-linejoin="round"/>
<path d="M22.1934 30.6667L36.6081 23.0001L22.1934 15.3334V30.6667Z" stroke="black" stroke-width="3.28571" stroke-linecap="round" stroke-linejoin="round"/>
</g>
<defs>
<clipPath id="clip0_1_457">
<rect width="55.8571" height="46" fill="white" transform="translate(0.571289)"/>
</clipPath>
</defs>
</svg>
