<svg width="47" height="46" viewBox="0 0 47 46" fill="none" xmlns="http://www.w3.org/2000/svg">
<g clip-path="url(#clip0_1_456)">
<path d="M44.3688 5.75002C42.5334 7.04468 40.5012 8.03489 38.3505 8.68252C37.1962 7.35525 35.662 6.41451 33.9556 5.98754C32.2492 5.56057 30.4529 5.66798 28.8095 6.29522C27.1661 6.92246 25.755 8.03929 24.767 9.49464C23.7791 10.95 23.2619 12.6737 23.2855 14.4325V16.3492C19.9172 16.4365 16.5796 15.6895 13.5699 14.1746C10.5602 12.6598 7.97192 10.4241 6.03548 7.66668C6.03548 7.66668 -1.63119 24.9167 15.6188 32.5834C11.6715 35.2628 6.9692 36.6063 2.20215 36.4167C19.4522 46 40.5355 36.4167 40.5355 14.375C40.5337 13.8411 40.4824 13.3086 40.3822 12.7842C42.3383 10.855 43.7187 8.41938 44.3688 5.75002V5.75002Z" stroke="black" stroke-width="3.28571" stroke-linecap="round" stroke-linejoin="round"/>
</g>
<defs>
<clipPath id="clip0_1_456">
<rect width="46" height="46" fill="white" transform="translate(0.286133)"/>
</clipPath>
</defs>
</svg>
