<svg width="63" height="46" viewBox="0 0 63 46" fill="none" xmlns="http://www.w3.org/2000/svg">
<path d="M16.9846 13.1406C14.2541 13.1406 11.9695 13.8498 10.1927 14.8802V3.28571V1.64285H8.54981H3.71387H2.07101V3.28571V42.7143V44.3571H3.71387H8.54981H10.1927V42.7143V26.6066C10.1927 24.2924 10.9926 22.8736 12.011 22.0075C13.0743 21.1033 14.55 20.6566 16.0849 20.6566C17.6952 20.6566 18.8906 21.1095 19.6822 21.8911C20.467 22.6661 21.0774 23.9842 21.0774 26.1727V42.7143V44.3571H22.7202H27.5562H29.199V42.7143V25.5219C29.199 21.3596 27.7865 18.2004 25.4302 16.0995C23.1067 14.0278 20.0409 13.1406 16.9846 13.1406ZM48.9994 13.1406C46.269 13.1406 43.9843 13.8498 42.2075 14.8802V3.28571V1.64285H40.5646H35.7287H34.0858V3.28571V42.7143V44.3571H35.7287H40.5646H42.2075V42.7143V26.6066C42.2075 24.2924 43.0074 22.8736 44.0258 22.0075C45.0891 21.1033 46.5648 20.6566 48.0997 20.6566C49.71 20.6566 50.9054 21.1095 51.697 21.8911C52.4818 22.6661 53.0922 23.9842 53.0922 26.1727V42.7143V44.3571H54.7351H59.571H61.2139V42.7143V25.5219C61.2139 21.3596 59.8013 18.2004 57.4451 16.0995C55.1216 14.0278 52.0557 13.1406 48.9994 13.1406Z" stroke="black" stroke-width="3.28571"/>
</svg>
