<svg width="60" height="60" viewBox="0 0 60 60" fill="none" xmlns="http://www.w3.org/2000/svg">
<rect width="60" height="60" rx="7.45763" fill="#FFFFFE"/>
<path d="M29.4798 49L16.0033 45.3013L13 12H46L42.9936 45.2962L29.4798 49Z" fill="#264DE4"/>
<path d="M40.4198 43.176L42.9889 14.7228H29.5V46.1689L40.4198 43.176Z" fill="#2965F1"/>
<path d="M19.8847 27.0738L20.2549 31.1581H29.4998V27.0738H19.8847ZM19.1406 18.8072L19.5161 22.8915H29.4998V18.8072H19.1406ZM29.4998 37.6811L29.4817 37.6859L24.8808 36.4577L24.5866 33.2003H20.4395L21.0182 39.6132L29.4808 41.9356L29.4998 41.9305V37.6811Z" fill="#EBEBEB"/>
<path d="M39.0885 27.0738L39.8342 18.8072H29.4855V22.8915H35.3068L34.9308 27.0738H29.4855V31.1581H34.5727L34.093 36.4551L29.4854 37.6846V41.9337L37.9547 39.6132L38.0168 38.9232L38.9877 28.1706L39.0885 27.0738Z" fill="white"/>
</svg>
