<svg width="40" height="36" viewBox="0 0 40 36" fill="none" xmlns="http://www.w3.org/2000/svg">
<g clip-path="url(#clip0_21_345)">
<path d="M32.888 11.6565C32.4623 11.5089 32.033 11.3722 31.6005 11.2464C31.6731 10.9464 31.74 10.6501 31.7994 10.3589C32.7741 5.57768 32.1369 1.72584 29.9605 0.457628C27.8737 -0.758162 24.4611 0.509575 21.0145 3.54068C20.6749 3.83994 20.3427 4.14783 20.0184 4.46405C19.8013 4.25378 19.5804 4.04758 19.3558 3.84558C15.7436 0.604628 12.123 -0.76132 9.94891 0.510523C7.86406 1.7301 7.24672 5.3511 8.12422 9.88237C8.21152 10.3311 8.31009 10.7776 8.41984 11.2213C7.90734 11.3685 7.41281 11.5251 6.93953 11.6918C2.70453 13.1839 0 15.5222 0 17.9476C0 20.4526 2.90344 22.9652 7.31437 24.4887C7.67198 24.6117 8.03256 24.7257 8.39578 24.8306C8.27782 25.3085 8.17309 25.7896 8.08172 26.2734C7.24516 30.7261 7.89844 34.2615 9.97766 35.4733C12.1252 36.7248 15.7295 35.4386 19.2391 32.3383C19.5236 32.0863 19.802 31.8271 20.0737 31.561C20.4249 31.9034 20.7855 32.2359 21.155 32.5579C24.5547 35.5141 27.9122 36.7077 29.9894 35.4926C32.1348 34.2375 32.8322 30.4395 31.9269 25.8187C31.8556 25.4567 31.7756 25.0965 31.687 24.7384C31.9402 24.6626 32.1886 24.5846 32.4308 24.5034C37.0164 22.9682 40 20.4861 40 17.9476C40 15.5134 37.2081 13.1593 32.888 11.6565ZM31.8934 22.8645C31.6747 22.9376 31.4503 23.0082 31.2216 23.0768C30.7153 21.4573 30.0322 19.7353 29.1961 17.956C29.9939 16.2192 30.6508 14.5191 31.1428 12.9102C31.552 13.0298 31.9491 13.156 32.3319 13.2891C36.0334 14.5769 38.2912 16.4806 38.2912 17.9476C38.2912 19.5102 35.8528 21.5386 31.8934 22.8645ZM30.2506 26.1541C30.6509 28.1972 30.708 30.0446 30.4428 31.4888C30.2047 32.7866 29.7256 33.6517 29.1331 33.9983C27.8727 34.7356 25.1769 33.7772 22.2695 31.249C21.9258 30.9495 21.5904 30.6405 21.2638 30.3222C22.3909 29.0765 23.5173 27.6285 24.6167 26.0202C26.5505 25.8468 28.3773 25.5632 30.0341 25.1762C30.1139 25.5004 30.1861 25.8264 30.2506 26.1541ZM13.6369 33.8708C12.4053 34.3103 11.4244 34.3229 10.8314 33.9774C9.56969 33.2421 9.04516 30.4033 9.76062 26.5955C9.84567 26.1456 9.94306 25.6981 10.0527 25.2536C11.6911 25.6199 13.5047 25.8833 15.443 26.0421C16.5498 27.6158 17.7087 29.0623 18.8767 30.3289C18.6285 30.5717 18.3744 30.8081 18.1147 31.0382C16.5627 32.4091 15.0075 33.3817 13.6369 33.8708ZM7.86719 22.8548C5.91672 22.1811 4.30594 21.3056 3.20188 20.3502C2.20969 19.4917 1.70891 18.6392 1.70891 17.9476C1.70891 16.4757 3.88031 14.5984 7.50203 13.3224C7.94156 13.1677 8.40156 13.0216 8.87891 12.8846C9.37953 14.5298 10.0361 16.2501 10.8284 17.9896C10.0258 19.7549 9.35984 21.5026 8.85437 23.1673C8.52283 23.0713 8.19367 22.9672 7.86719 22.8548ZM9.80125 9.55063C9.04953 5.66847 9.54875 2.74 10.8052 2.005C12.1433 1.22215 15.1023 2.33831 18.2212 5.13684C18.4246 5.31974 18.6247 5.50635 18.8214 5.69658C17.6592 6.95768 16.5109 8.39342 15.4139 9.95784C13.5327 10.1341 11.7319 10.417 10.0763 10.7961C9.97425 10.3834 9.88255 9.96816 9.80125 9.55079V9.55063ZM27.0555 13.8561C26.6644 13.1735 26.2589 12.4995 25.8391 11.8346C27.1153 11.9977 28.3381 12.2142 29.4864 12.4788C29.1417 13.5954 28.712 14.7627 28.2063 15.9596C27.8366 15.2507 27.4529 14.5494 27.0555 13.8561ZM20.0192 6.93068C20.8073 7.79358 21.5967 8.75689 22.3731 9.80216C20.7981 9.72699 19.2205 9.72667 17.6455 9.80121C18.4227 8.76558 19.2188 7.80352 20.0192 6.93068ZM12.9378 13.8679C12.5454 14.5557 12.1689 15.2526 11.8086 15.9582C11.3111 14.7656 10.8853 13.5929 10.5377 12.4605C11.6789 12.2025 12.8959 11.9915 14.1641 11.8314C13.7396 12.5004 13.3307 13.1794 12.9378 13.8678V13.8679ZM14.2005 24.1867C12.8903 24.0389 11.655 23.8388 10.5141 23.5878C10.8672 22.4352 11.3023 21.2375 11.8106 20.0194C12.1723 20.7254 12.5504 21.4228 12.9445 22.1108C13.3498 22.8182 13.7695 23.5111 14.2005 24.1867ZM20.0664 29.0862C19.2564 28.2032 18.4486 27.2263 17.6597 26.1757C18.4256 26.206 19.2064 26.2215 20 26.2215C20.8153 26.2215 21.6213 26.203 22.4145 26.1673C21.6356 27.2369 20.8492 28.2152 20.0664 29.0862ZM28.2223 19.9572C28.757 21.1887 29.2077 22.3801 29.5655 23.5129C28.4058 23.7804 27.1536 23.9958 25.8342 24.1557C26.257 23.4785 26.6664 22.7927 27.0622 22.099C27.4646 21.3938 27.8514 20.6797 28.2223 19.9572ZM25.582 21.2363C24.9761 22.2999 24.3361 23.3433 23.6631 24.3649C22.444 24.4522 21.2222 24.4955 20 24.4949C18.7552 24.4949 17.5444 24.4557 16.3784 24.3793C15.6878 23.3601 15.0357 22.3148 14.4233 21.2457H14.4234C13.8139 20.1823 13.2446 19.0959 12.7167 17.9888C13.2433 16.8815 13.8109 15.7946 14.4183 14.7304L14.4181 14.7305C15.0253 13.666 15.6723 12.6252 16.3577 11.6104C17.5472 11.5194 18.767 11.472 19.9998 11.472H20C21.2384 11.472 22.4598 11.5199 23.6491 11.6115C24.3275 12.6248 24.9704 13.662 25.5764 14.7212C26.1858 15.7831 26.7609 16.8647 27.3008 17.9644C26.7665 19.0753 26.1932 20.1666 25.582 21.2363ZM29.107 1.95352C30.4464 2.73415 30.9673 5.8821 30.1258 10.0103C30.072 10.2736 30.0117 10.5419 29.9461 10.8139C28.2864 10.4268 26.4844 10.1389 24.5977 9.96005C23.4986 8.37842 22.3597 6.94047 21.2164 5.69563C21.516 5.40376 21.8228 5.11946 22.1364 4.843C25.0895 2.2461 27.8495 1.22073 29.107 1.95352ZM20 14.3382C21.9727 14.3382 23.5719 15.9542 23.5719 17.9476C23.5719 19.9411 21.9727 21.5571 20 21.5571C18.0273 21.5571 16.4281 19.9411 16.4281 17.9476C16.4281 15.9542 18.0273 14.3382 20 14.3382Z" fill="#00D8FF"/>
</g>
<defs>
<clipPath id="clip0_21_345">
<rect width="40" height="36" fill="white"/>
</clipPath>
</defs>
</svg>
