<svg width="47" height="46" viewBox="0 0 47 46" fill="none" xmlns="http://www.w3.org/2000/svg">
<g clip-path="url(#clip0_4_103)">
<path d="M44.3698 5.74999C42.5344 7.04465 40.5022 8.03486 38.3515 8.68249C37.1971 7.35522 35.663 6.41448 33.9566 5.98751C32.2502 5.56054 30.4538 5.66794 28.8104 6.29519C27.1671 6.92243 25.756 8.03926 24.768 9.49461C23.78 10.95 23.2629 12.6736 23.2865 14.4325V16.3492C19.9182 16.4365 16.5806 15.6895 13.5709 14.1746C10.5612 12.6597 7.9729 10.424 6.03646 7.66665C6.03646 7.66665 -1.63021 24.9167 15.6198 32.5833C11.6725 35.2628 6.97018 36.6063 2.20312 36.4167C19.4531 46 40.5365 36.4167 40.5365 14.375C40.5347 13.8411 40.4834 13.3085 40.3831 12.7842C42.3393 10.855 43.7197 8.41935 44.3698 5.74999V5.74999Z" stroke="black" stroke-width="3.28571" stroke-linecap="round" stroke-linejoin="round"/>
</g>
<defs>
<clipPath id="clip0_4_103">
<rect width="46" height="46" fill="white" transform="translate(0.286133)"/>
</clipPath>
</defs>
</svg>
