<svg width="57" height="46" viewBox="0 0 57 46" fill="none" xmlns="http://www.w3.org/2000/svg">
<g clip-path="url(#clip0_4_104)">
<path d="M51.7666 9.83368C51.4942 8.65693 50.9394 7.57874 50.1583 6.70802C49.3772 5.8373 48.3974 5.20488 47.3179 4.87465C43.3737 3.83325 27.5969 3.83325 27.5969 3.83325C27.5969 3.83325 11.8201 3.83325 7.87593 4.97383C6.79643 5.30406 5.81664 5.93648 5.03553 6.8072C4.25442 7.67792 3.69965 8.75611 3.42725 9.93286C2.7054 14.261 2.35231 18.6516 2.3724 23.0495C2.34667 27.4805 2.69979 31.9046 3.42725 36.2653C3.72755 37.4055 4.29476 38.4427 5.07405 39.2767C5.85334 40.1106 6.81838 40.7131 7.87593 41.026C11.8201 42.1666 27.5969 42.1666 27.5969 42.1666C27.5969 42.1666 43.3737 42.1666 47.3179 41.026C48.3974 40.6958 49.3772 40.0634 50.1583 39.1926C50.9394 38.3219 51.4942 37.2437 51.7666 36.067C52.4828 31.7714 52.8359 27.4143 52.8214 23.0495C52.8471 18.6185 52.494 14.1944 51.7666 9.83368V9.83368Z" stroke="black" stroke-width="3.28571" stroke-linecap="round" stroke-linejoin="round"/>
<path d="M22.1934 30.6666L36.6081 22.9999L22.1934 15.3333V30.6666Z" stroke="black" stroke-width="3.28571" stroke-linecap="round" stroke-linejoin="round"/>
</g>
<defs>
<clipPath id="clip0_4_104">
<rect width="55.8571" height="46" fill="white" transform="translate(0.571289)"/>
</clipPath>
</defs>
</svg>
