<svg width="63" height="46" viewBox="0 0 63 46" fill="none" xmlns="http://www.w3.org/2000/svg">
<path d="M16.9851 13.1406C14.2546 13.1406 11.97 13.8498 10.1932 14.8802V3.28571V1.64285H8.5503H3.71436H2.0715V3.28571V42.7143V44.3571H3.71436H8.5503H10.1932V42.7143V26.6066C10.1932 24.2924 10.9931 22.8736 12.0115 22.0075C13.0748 21.1033 14.5505 20.6566 16.0854 20.6566C17.6957 20.6566 18.8911 21.1095 19.6826 21.8911C20.4675 22.6661 21.0779 23.9842 21.0779 26.1727V42.7143V44.3571H22.7207H27.5567H29.1995V42.7143V25.5219C29.1995 21.3596 27.787 18.2004 25.4307 16.0995C23.1072 14.0278 20.0414 13.1406 16.9851 13.1406ZM48.9999 13.1406C46.2694 13.1406 43.9848 13.8498 42.208 14.8802V3.28571V1.64285H40.5651H35.7292H34.0863V3.28571V42.7143V44.3571H35.7292H40.5651H42.208V42.7143V26.6066C42.208 24.2924 43.0079 22.8736 44.0263 22.0075C45.0896 21.1033 46.5653 20.6566 48.1002 20.6566C49.7105 20.6566 50.9059 21.1095 51.6975 21.8911C52.4823 22.6661 53.0927 23.9842 53.0927 26.1727V42.7143V44.3571H54.7356H59.5715H61.2144V42.7143V25.5219C61.2144 21.3596 59.8018 18.2004 57.4455 16.0995C55.1221 14.0278 52.0562 13.1406 48.9999 13.1406Z" stroke="black" stroke-width="3.28571"/>
</svg>
