<svg width="57" height="46" viewBox="0 0 57 46" fill="none" xmlns="http://www.w3.org/2000/svg">
<g clip-path="url(#clip0_1_338)">
<path d="M51.7678 9.83374C51.4954 8.65699 50.9406 7.5788 50.1595 6.70808C49.3784 5.83736 48.3986 5.20494 47.3191 4.87471C43.3749 3.83331 27.5981 3.83331 27.5981 3.83331C27.5981 3.83331 11.8213 3.83331 7.87715 4.97389C6.79765 5.30412 5.81786 5.93654 5.03675 6.80726C4.25564 7.67798 3.70087 8.75617 3.42847 9.93292C2.70662 14.2611 2.35353 18.6517 2.37363 23.0496C2.34789 27.4806 2.70101 31.9047 3.42847 36.2654C3.72878 37.4056 4.29598 38.4428 5.07527 39.2767C5.85456 40.1107 6.8196 40.7132 7.87715 41.0261C11.8213 42.1666 27.5981 42.1666 27.5981 42.1666C27.5981 42.1666 43.3749 42.1666 47.3191 41.0261C48.3986 40.6958 49.3784 40.0634 50.1595 39.1927C50.9406 38.322 51.4954 37.2438 51.7678 36.067C52.4841 31.7715 52.8371 27.4143 52.8226 23.0496C52.8484 18.6186 52.4952 14.1945 51.7678 9.83374V9.83374Z" stroke="black" stroke-width="3.28571" stroke-linecap="round" stroke-linejoin="round"/>
<path d="M22.1937 30.6666L36.6085 23L22.1937 15.3333V30.6666Z" stroke="black" stroke-width="3.28571" stroke-linecap="round" stroke-linejoin="round"/>
</g>
<defs>
<clipPath id="clip0_1_338">
<rect width="55.8571" height="46" fill="white" transform="translate(0.571411)"/>
</clipPath>
</defs>
</svg>
