<svg width="47" height="46" viewBox="0 0 47 46" fill="none" xmlns="http://www.w3.org/2000/svg">
<g clip-path="url(#clip0_1_337)">
<path d="M44.3692 5.74999C42.5338 7.04465 40.5016 8.03486 38.3509 8.68249C37.1965 7.35522 35.6624 6.41448 33.956 5.98751C32.2496 5.56054 30.4532 5.66794 28.8098 6.29519C27.1665 6.92243 25.7554 8.03926 24.7674 9.49461C23.7794 10.95 23.2623 12.6736 23.2859 14.4325V16.3492C19.9176 16.4365 16.58 15.6895 13.5703 14.1746C10.5606 12.6597 7.97229 10.424 6.03585 7.66665C6.03585 7.66665 -1.63082 24.9167 15.6192 32.5833C11.6719 35.2628 6.96957 36.6063 2.20251 36.4167C19.4525 46 40.5359 36.4167 40.5359 14.375C40.5341 13.8411 40.4828 13.3085 40.3825 12.7842C42.3387 10.855 43.7191 8.41935 44.3692 5.74999V5.74999Z" stroke="black" stroke-width="3.28571" stroke-linecap="round" stroke-linejoin="round"/>
</g>
<defs>
<clipPath id="clip0_1_337">
<rect width="46" height="46" fill="white" transform="translate(0.285767)"/>
</clipPath>
</defs>
</svg>
